<?xml version="1.0" encoding="utf-8"?>
<!-- Generator: Adobe Illustrator 16.0.0, SVG Export Plug-In . SVG Version: 6.00 Build 0)  -->
<!DOCTYPE svg PUBLIC "-//W3C//DTD SVG 1.1//EN" "http://www.w3.org/Graphics/SVG/1.1/DTD/svg11.dtd">
<svg version="1.1" id="Layer_1" xmlns="http://www.w3.org/2000/svg" xmlns:xlink="http://www.w3.org/1999/xlink" x="0px" y="0px"
	 width="731px" height="626px" viewBox="0 0 731 626" enable-background="new 0 0 731 626" xml:space="preserve">
<path fill="#010101" stroke="#010101" stroke-width="20.4785" d="M222.258,247.02"/>
<path fill="#010101" stroke="#010101" stroke-width="20.4785" d="M210.417,223.506"/>
<path fill="#00A99D" d="M461.963,111.176c3.146,0,6.412,1.207,9.816,3.608c3.396,2.409,6.021,5.825,7.854,10.231l99.724,232.862
	l-16.883-1.203l101.68-231.661c4.186-9.224,9.553-13.838,16.098-13.838c5.234,0,9.877,2.917,13.941,8.721
	c4.052,5.823,6.082,13.147,6.082,21.966V502.29c0,8.825-1.832,16.15-5.494,21.961c-3.668,5.82-8.508,8.727-14.529,8.727
	c-6.279,0-11.323-2.906-15.111-8.727c-3.801-5.811-5.692-13.136-5.692-21.961V197.221l12.562,4.217l-86.373,201.571
	c-1.837,3.607-4.19,6.722-7.066,9.327c-2.881,2.612-5.89,3.71-9.029,3.302c-2.882,0.408-5.831-0.689-8.838-3.302
	c-3.01-2.605-5.434-5.72-7.259-9.327l-83.233-198.563l9.423-24.071v321.919c0,8.826-1.765,16.151-5.304,21.962
	c-3.531,5.82-8.184,8.727-13.934,8.727c-5.501,0-10.016-2.906-13.545-8.727c-3.537-5.811-5.302-13.136-5.302-21.962V141.862
	c0-8.424,2.023-15.643,6.089-21.661C451.689,114.186,456.469,111.176,461.963,111.176z"/>
<g>
	<path fill="#00A99D" d="M368.987,114.882c-8.89,0-15.32-2.353-19.301-7.067c-3.98-4.709-5.968-12.666-5.968-23.886V73.164
		c0-11.205,2.135-19.061,6.433-23.546c4.284-4.482,10.719-6.728,19.296-6.728c9.19,0,15.771,2.353,19.755,7.063
		c3.979,4.709,5.976,12.449,5.976,23.213v10.766c0,11.674-2.066,19.743-6.206,24.225
		C384.838,112.645,378.176,114.882,368.987,114.882z"/>
	<path fill="#2AAAE2" d="M369.952,352.779c9.728,0,16.768-2.574,21.124-7.729c4.363-5.154,6.539-13.866,6.539-26.146V307.12
		c0-12.272-2.342-20.867-7.041-25.778c-4.693-4.903-11.734-7.363-21.127-7.363c-10.058,0-17.267,2.576-21.624,7.729
		c-4.356,5.16-6.543,13.624-6.543,25.412v11.784c0,12.778,2.261,21.61,6.799,26.521C352.6,350.338,359.894,352.779,369.952,352.779z
		"/>
	<path fill="#00A99D" d="M369.981,597.786c10.296,0,17.753-2.724,22.362-8.185c4.623-5.461,6.921-14.682,6.921-27.674v-12.479
		c0-12.992-2.478-22.086-7.452-27.293c-4.968-5.185-12.425-7.79-22.367-7.79c-10.649,0-18.28,2.728-22.891,8.179
		c-4.615,5.467-6.928,14.432-6.928,26.904v12.479c0,13.521,2.394,22.877,7.195,28.065
		C351.611,595.196,359.335,597.786,369.981,597.786z"/>
</g>
<path fill="#010101" d="M226.763,198.608c-1.801,4.262-3.658,8.473-5.535,12.671c-1.753,3.918-3.605,7.749-5.452,11.583
	c0.116-0.794-0.292-1.582-0.827-1.54c-0.031-0.85-0.666-1.683-1.223-1.051c-0.567,0.64-1.128,1.288-1.696,1.926
	c-0.003-0.014,0-0.03-0.003-0.049c0.609-0.832,1.233-1.636,1.836-2.482c0.071-0.103,0.054-0.213,0.091-0.32
	c1.656-2.377,3.31-4.753,4.96-7.151c0.715-1.035-0.334-2.486-1.082-1.585c-0.609,0.734-1.2,1.504-1.802,2.249
	c0.169-0.243,0.328-0.494,0.499-0.735c1.932-2.735,3.975-5.28,6.032-7.81C222.778,204.054,228.249,195.085,226.763,198.608z"/>
<g>
	<path fill="#00A99D" d="M244.691,332.266v168.991c0,8.978,1.896,16.429,5.692,22.337c3.792,5.923,8.834,8.878,15.115,8.878
		c6.019,0,10.86-2.955,14.527-8.878c3.662-5.908,5.497-13.359,5.497-22.337V231.564L244.691,332.266z"/>
	<path fill="#2AAAE2" d="M285.523,141.816c0-8.809-2.03-16.117-6.085-21.933c-4.06-5.796-8.705-8.708-13.938-8.708
		c-6.543,0-11.911,4.609-16.096,13.818l-33.58,76.38c-0.983,0.414-59.822,136.062-59.822,136.062L64.879,124.993
		c-1.834-4.402-4.453-7.813-7.852-10.22c-3.402-2.395-6.674-3.598-9.813-3.598c-5.497,0-10.278,3.006-14.333,9.013
		c-4.061,6.007-6.085,13.216-6.085,21.628v359.841c0,8.812,1.767,16.12,5.299,21.929c3.534,5.809,8.048,8.713,13.545,8.713
		c5.755,0,10.405-2.904,13.938-8.713c3.534-5.809,5.3-13.117,5.3-21.929V226.736l73.812,175.796
		c1.828,3.605,4.251,6.714,7.263,9.314c3.006,2.611,5.953,3.707,8.834,3.295c3.141,0.412,6.147-0.684,9.029-3.295
		c2.877-2.601,5.234-5.709,7.066-9.314L285.523,141.816z"/>
</g>
<path fill="#010101" d="M198.838,234.952"/>
<path fill="#010101" d="M195.927,231.564"/>
</svg>
