<?xml version="1.0" encoding="utf-8"?>
<!-- Generator: Adobe Illustrator 16.0.0, SVG Export Plug-In . SVG Version: 6.00 Build 0)  -->
<!DOCTYPE svg PUBLIC "-//W3C//DTD SVG 1.1//EN" "http://www.w3.org/Graphics/SVG/1.1/DTD/svg11.dtd">
<svg version="1.1" xmlns="http://www.w3.org/2000/svg" xmlns:xlink="http://www.w3.org/1999/xlink" x="0px" y="0px" width="1850px"
	 height="306px" viewBox="0 0 1850 306" enable-background="new 0 0 1850 306" xml:space="preserve">
<g id="Layer_1">
</g>
<g id="Layer_2">
	<path fill="#00A99D" d="M182.375,157.347v90.023c0,4.782,1.479,8.752,4.441,11.9c2.958,3.154,6.891,4.729,11.791,4.729
		c4.695,0,8.471-1.575,11.332-4.729c2.857-3.148,4.288-7.118,4.288-11.9V103.703L182.375,157.347z"/>
	<path stroke="#000000" stroke-width="13.2013" d="M164.874,111.936"/>
	<path stroke="#000000" stroke-width="13.2013" d="M155.637,99.41"/>
	<path fill="#29ABE2" d="M296.307,238.648c-0.207,4.492-1.892,8.221-5.054,11.178c-3.168,2.963-6.892,4.442-11.179,4.442
		c-4.7,0-8.528-1.479-11.485-4.442c-2.962-2.957-4.441-6.686-4.441-11.178V55.495c0-4.486,1.532-8.215,4.595-11.177
		c3.062-2.958,7.044-4.443,11.944-4.443c4.082,0,7.704,1.485,10.872,4.443c3.164,2.962,4.749,6.691,4.749,11.177V238.648z"/>
	<path fill="#29ABE2" d="M506.713,39.875c4.083,0,7.399,1.38,9.954,4.136c2.552,2.759,3.829,6.178,3.829,10.263v184.375
		c0,4.492-1.484,8.221-4.441,11.178c-2.962,2.963-6.69,4.442-11.179,4.442c-2.043,0-4.24-0.408-6.585-1.228
		c-2.351-0.813-4.134-1.938-5.359-3.367L367.054,86.431l7.045-3.981v157.73c0,3.879-1.331,7.196-3.981,9.952
		c-2.656,2.757-6.026,4.137-10.107,4.137c-4.288,0-7.709-1.38-10.259-4.137c-2.557-2.756-3.829-6.073-3.829-9.952V55.495
		c0-4.693,1.532-8.467,4.595-11.33c3.062-2.856,6.737-4.291,11.025-4.291c2.245,0,4.642,0.462,7.197,1.38
		c2.55,0.92,4.441,2.297,5.667,4.136L497.22,205.263l-4.595,4.289V54.273c0-4.085,1.325-7.503,3.981-10.263
		C499.258,41.255,502.627,39.875,506.713,39.875z"/>
	<path fill="#29ABE2" d="M660.765,39.875c14.901,0,28.071,2.811,39.508,8.426c11.433,5.616,20.979,13.374,28.636,23.275
		c7.658,9.906,13.424,21.336,17.305,34.3c3.876,12.969,5.819,26.702,5.819,41.195c0,19.807-3.474,37.825-10.413,54.056
		c-6.945,16.233-17.151,29.151-30.627,38.743c-13.477,9.601-30.222,14.397-50.229,14.397h-74.73c-4.288,0-7.964-1.479-11.025-4.442
		c-3.063-2.957-4.595-6.686-4.595-11.178V55.495c0-4.486,1.532-8.215,4.595-11.177c3.062-2.958,6.737-4.443,11.025-4.443H660.765z
		 M657.701,224.864c14.496,0,26.234-3.568,35.221-10.719c8.983-7.145,15.567-16.586,19.754-28.328
		c4.184-11.742,6.279-24.657,6.279-38.746c0-10.415-1.177-20.261-3.522-29.556c-2.35-9.288-6.025-17.557-11.026-24.807
		c-5.006-7.245-11.332-12.964-18.988-17.151c-7.657-4.183-16.897-6.278-27.718-6.278h-57.885l2.757-2.757v161.405l-1.839-3.063
		H657.701z"/>
	<path fill="#29ABE2" d="M869.013,257.332c-17.216,0-32.521-2.045-45.91-6.127c-13.393-4.084-26.182-10.821-38.375-20.215
		c-2.634-1.632-4.607-3.622-5.917-5.971c-1.319-2.347-1.974-4.75-1.974-7.199c0-3.875,1.669-7.349,5.021-10.412
		c3.346-3.063,7.531-4.595,12.553-4.595c3.823,0,7.407,1.125,10.759,3.367c9.084,7.153,18.589,12.558,28.514,16.234
		c9.918,3.677,21.575,5.513,34.966,5.513c9.566,0,18.352-1.325,26.366-3.981c8.007-2.65,14.402-6.227,19.185-10.722
		c4.783-4.485,7.176-9.694,7.176-15.619c0-7.349-2.453-13.423-7.357-18.222c-4.903-4.795-11.956-8.776-21.16-11.946
		c-9.204-3.161-20.26-5.866-33.171-8.117c-11.961-1.835-22.659-4.388-32.102-7.655c-9.449-3.264-17.519-7.397-24.21-12.404
		c-6.697-5.002-11.835-10.974-15.421-17.918c-3.588-6.938-5.381-15.006-5.381-24.193c0-12.454,3.823-23.174,11.477-32.16
		c7.65-8.98,18.052-15.927,31.205-20.826c13.146-4.902,27.975-7.351,44.476-7.351c15.061,0,29.167,1.991,42.319,5.972
		c13.147,3.984,23.785,9.342,31.923,16.081c5.734,4.286,8.604,8.88,8.604,13.779c0,3.677-1.741,7.099-5.201,10.262
		c-3.465,3.167-7.475,4.747-12.015,4.747c-3.352,0-6.222-0.813-8.606-2.452c-3.829-3.468-8.968-6.583-15.423-9.339
		c-6.456-2.756-13.333-5.054-20.623-6.892c-7.294-1.839-14.286-2.757-20.978-2.757c-10.762,0-19.971,1.279-27.62,3.83
		c-7.655,2.555-13.511,6.025-17.574,10.414c-4.069,4.394-6.097,9.545-6.097,15.465c0,6.944,2.331,12.663,6.994,17.151
		c4.661,4.495,11.173,8.117,19.546,10.874c8.366,2.756,17.932,5.257,28.692,7.503c13.147,2.452,24.93,5.205,35.328,8.269
		c10.398,3.063,19.184,6.997,26.36,11.793c7.173,4.798,12.675,10.772,16.497,17.915c3.821,7.149,5.745,16.032,5.745,26.645
		c0,12.252-4.071,22.973-12.201,32.16c-8.127,9.187-18.827,16.337-32.095,21.439C900.035,254.773,885.27,257.332,869.013,257.332z"
		/>
	<path fill="#00A99D" d="M1069.934,39.571c2.455,0,5.003,0.614,7.658,1.836c2.65,1.227,4.698,2.965,6.127,5.208l77.795,118.528
		l-13.171-0.614l79.321-117.915c3.265-4.695,7.452-7.044,12.557-7.044c4.084,0,7.705,1.485,10.876,4.44
		c3.161,2.963,4.744,6.691,4.744,11.18v183.458c0,4.492-1.428,8.221-4.285,11.178c-2.861,2.963-6.637,4.442-11.335,4.442
		c-4.898,0-8.833-1.479-11.788-4.442c-2.965-2.957-4.44-6.686-4.44-11.178V83.368l9.799,2.146l-67.379,102.599
		c-1.434,1.838-3.27,3.421-5.513,4.749c-2.248,1.33-4.595,1.888-7.044,1.681c-2.248,0.207-4.549-0.351-6.895-1.681
		c-2.347-1.328-4.239-2.911-5.662-4.749l-64.93-101.068l7.35-12.252v163.857c0,4.492-1.377,8.221-4.137,11.178
		c-2.754,2.963-6.384,4.442-10.87,4.442c-4.291,0-7.813-1.479-10.566-4.442c-2.759-2.957-4.136-6.686-4.136-11.178V55.19
		c0-4.288,1.578-7.962,4.75-11.025C1061.92,41.103,1065.648,39.571,1069.934,39.571z"/>
	<path fill="#00A99D" d="M1321.379,39.875h105.971c4.291,0,7.911,1.434,10.876,4.291c2.955,2.862,4.439,6.43,4.439,10.718
		s-1.484,7.764-4.439,10.415c-2.965,2.656-6.585,3.981-10.876,3.981h-92.491l3.063-5.208v68.605l-2.759-3.063h78.403
		c4.291,0,7.91,1.434,10.876,4.291c2.954,2.862,4.439,6.534,4.439,11.025c0,4.286-1.485,7.762-4.439,10.412
		c-2.966,2.656-6.585,3.981-10.876,3.981h-77.791l2.146-2.753v70.746l-2.146-2.449h91.574c4.291,0,7.911,1.484,10.876,4.439
		c2.955,2.966,4.439,6.385,4.439,10.263c0,4.287-1.484,7.81-4.439,10.565c-2.965,2.757-6.585,4.137-10.876,4.137h-105.971
		c-4.286,0-7.963-1.479-11.025-4.442c-3.063-2.957-4.59-6.686-4.59-11.178V55.495c0-4.486,1.526-8.215,4.59-11.177
		C1313.416,41.36,1317.093,39.875,1321.379,39.875z"/>
	<path fill="#00A99D" d="M1557.263,257.332c-16.714,0-31.567-2.045-44.565-6.127c-13.002-4.084-25.42-10.821-37.255-20.215
		c-2.558-1.632-4.474-3.622-5.748-5.971c-1.276-2.347-1.915-4.75-1.915-7.199c0-3.875,1.625-7.349,4.878-10.412
		c3.246-3.063,7.31-4.595,12.181-4.595c3.713,0,7.193,1.125,10.447,3.367c8.818,7.153,18.044,12.558,27.682,16.234
		c9.628,3.677,20.941,5.513,33.945,5.513c9.284,0,17.813-1.325,25.596-3.981c7.772-2.65,13.979-6.227,18.623-10.722
		c4.643-4.485,6.964-9.694,6.964-15.619c0-7.349-2.38-13.423-7.139-18.222c-4.761-4.795-11.608-8.776-20.543-11.946
		c-8.934-3.161-19.668-5.866-32.201-8.117c-11.612-1.835-21.996-4.388-31.164-7.655c-9.175-3.264-17.008-7.397-23.503-12.404
		c-6.503-5.002-11.492-10.974-14.973-17.918c-3.483-6.938-5.224-15.006-5.224-24.193c0-12.454,3.711-23.174,11.144-32.16
		c7.429-8.98,17.522-15.927,30.291-20.826c12.764-4.902,27.161-7.351,43.177-7.351c14.62,0,28.317,1.991,41.086,5.972
		c12.76,3.984,23.091,9.342,30.986,16.081c5.57,4.286,8.354,8.88,8.354,13.779c0,3.677-1.689,7.099-5.046,10.262
		c-3.363,3.167-7.259,4.747-11.667,4.747c-3.253,0-6.038-0.813-8.354-2.452c-3.716-3.468-8.705-6.583-14.973-9.339
		c-6.266-2.756-12.944-5.054-20.019-6.892c-7.083-1.839-13.872-2.757-20.368-2.757c-10.446,0-19.387,1.279-26.813,3.83
		c-7.43,2.555-13.114,6.025-17.059,10.414c-3.954,4.394-5.915,9.545-5.915,15.465c0,6.944,2.261,12.663,6.785,17.151
		c4.528,4.495,10.849,8.117,18.978,10.874c8.12,2.756,17.406,5.257,27.852,7.503c12.764,2.452,24.201,5.205,34.297,8.269
		c10.096,3.063,18.625,6.997,25.589,11.793c6.965,4.798,12.304,10.772,16.018,17.915c3.71,7.149,5.573,16.032,5.573,26.645
		c0,12.252-3.949,22.973-11.842,32.16c-7.891,9.187-18.277,16.337-31.157,21.439
		C1587.378,254.773,1573.045,257.332,1557.263,257.332z"/>
	<path fill="#00A99D" d="M1005.338,41.546c-6.934,0-11.951-1.254-15.056-3.765c-3.106-2.509-4.656-6.747-4.656-12.724v-5.735
		c0-5.969,1.666-10.154,5.018-12.543c3.342-2.388,8.362-3.584,15.053-3.584c7.17,0,12.304,1.253,15.411,3.762
		c3.104,2.509,4.662,6.632,4.662,12.366v5.735c0,6.219-1.612,10.517-4.842,12.905C1017.704,40.354,1012.506,41.546,1005.338,41.546z
		"/>
	<path fill="#29ABE2" d="M1006.091,168.276c7.588,0,13.08-1.372,16.479-4.118c3.403-2.746,5.1-7.387,5.1-13.928v-6.278
		c0-6.537-1.826-11.116-5.492-13.732c-3.661-2.612-9.154-3.922-16.481-3.922c-7.846,0-13.47,1.372-16.868,4.117
		c-3.399,2.749-5.105,7.258-5.105,13.537v6.278c0,6.807,1.764,11.512,5.304,14.127
		C992.554,166.974,998.245,168.276,1006.091,168.276z"/>
	<path fill="#00A99D" d="M1006.114,298.792c8.032,0,13.849-1.451,17.445-4.36c3.605-2.909,5.399-7.82,5.399-14.743v-6.647
		c0-6.92-1.933-11.765-5.814-14.539c-3.875-2.762-9.692-4.15-17.448-4.15c-8.308,0-14.261,1.453-17.858,4.358
		c-3.6,2.912-5.404,7.688-5.404,14.331v6.647c0,7.204,1.867,12.188,5.613,14.951C991.783,297.412,997.809,298.792,1006.114,298.792z
		"/>
	<path d="M168.389,86.147c-1.404,2.271-2.854,4.514-4.317,6.75c-1.368,2.088-2.813,4.128-4.253,6.17
		c0.09-0.423-0.228-0.843-0.645-0.82c-0.024-0.453-0.519-0.897-0.954-0.56c-0.442,0.341-0.88,0.686-1.323,1.026
		c-0.002-0.008,0-0.016-0.002-0.026c0.474-0.443,0.962-0.871,1.432-1.323c0.055-0.054,0.042-0.113,0.072-0.17
		c1.292-1.266,2.582-2.532,3.869-3.809c0.557-0.552-0.261-1.325-0.844-0.845c-0.476,0.391-0.936,0.801-1.406,1.198
		c0.132-0.129,0.256-0.263,0.389-0.392c1.507-1.457,3.101-2.813,4.706-4.16C165.281,89.048,169.548,84.27,168.389,86.147z"/>
	<path fill="#29ABE2" d="M214.228,55.893c0-4.692-1.583-8.585-4.747-11.683c-3.167-3.088-6.791-4.639-10.873-4.639
		c-5.105,0-9.292,2.455-12.557,7.361l-26.196,40.688c-0.767,0.221-46.667,72.481-46.667,72.481L42.104,46.932
		c-1.431-2.345-3.474-4.162-6.125-5.444c-2.655-1.276-5.207-1.917-7.656-1.917c-4.288,0-8.017,1.601-11.18,4.801
		c-3.168,3.2-4.747,7.04-4.747,11.521v191.691c0,4.693,1.378,8.587,4.134,11.681c2.756,3.095,6.278,4.641,10.566,4.641
		c4.489,0,8.117-1.546,10.873-4.641c2.757-3.094,4.135-6.987,4.135-11.681V101.131l57.58,93.648c1.426,1.92,3.316,3.576,5.666,4.962
		c2.345,1.391,4.643,1.974,6.891,1.755c2.451,0.219,4.796-0.364,7.044-1.755c2.245-1.386,4.083-3.042,5.513-4.962L214.228,55.893z"
		/>
	<path d="M146.605,105.508"/>
	<path d="M144.334,103.703"/>
	<g>
		<path fill="#00A99D" d="M1670.373,245.147c0,5.498,1.476,10.063,4.439,13.684c2.955,3.626,6.787,5.438,11.485,5.438
			c4.284,0,8.008-1.812,11.181-5.438c3.16-3.621,4.847-8.186,5.053-13.684v-57.133h-32.158V245.147z"/>
		<path fill="#29ABE2" d="M1702.531,135.402V56.224c0-4.695-1.588-8.598-4.749-11.699c-3.167-3.095-6.792-4.65-10.871-4.65
			c-4.904,0-8.885,1.555-11.948,4.65c-3.063,3.101-4.59,7.003-4.59,11.699V167.29l138.738,0.229v80.401
			c0,4.701,1.531,8.604,4.596,11.699c3.063,3.101,6.739,4.649,11.024,4.649c4.899,0,8.829-1.549,11.794-4.649
			c2.953-3.095,4.439-6.998,4.439-11.699V134.819L1702.531,135.402z"/>
		<path fill="#00A99D" d="M1840.965,56.224c0-4.695-1.434-8.598-4.291-11.699c-2.861-3.095-6.733-4.65-11.639-4.65
			c-4.284,0-8.013,1.555-11.175,4.65c-3.171,3.101-4.749,7.003-4.749,11.699v58.561h31.854V56.224z"/>
	</g>
</g>
</svg>
